<svg height="1406" width="720" xmlns="http://www.w3.org/2000/svg">
<rect height="1406" fill="#555" width="720"></rect>
<text fill="#7f7" font-family="Courier New" font-size="12" xml:space="preserve">
<tspan x="10" y="26">13 megabytes installed</tspan>
<tspan x="10" y="42"></tspan>
<tspan x="10" y="58">node_modules</tspan>
<tspan x="10" y="74">└─┬ intercom-client@2.8.7 </tspan>
<tspan x="10" y="90">  ├── bluebird@3.5.0 </tspan>
<tspan x="10" y="106">  └─┬ unirest@0.5.1 </tspan>
<tspan x="10" y="122">    ├─┬ form-data@0.2.0 </tspan>
<tspan x="10" y="138">    │ ├── async@0.9.2 </tspan>
<tspan x="10" y="154">    │ ├─┬ combined-stream@0.0.7 </tspan>
<tspan x="10" y="170">    │ │ └── delayed-stream@0.0.5 </tspan>
<tspan x="10" y="186">    │ └─┬ mime-types@2.0.14 </tspan>
<tspan x="10" y="202">    │   └── mime-db@1.12.0 </tspan>
<tspan x="10" y="218">    ├── mime@1.3.4 </tspan>
<tspan x="10" y="234">    └─┬ request@2.74.0 </tspan>
<tspan x="10" y="250">      ├── aws-sign2@0.6.0 </tspan>
<tspan x="10" y="266">      ├── aws4@1.6.0 </tspan>
<tspan x="10" y="282">      ├─┬ bl@1.1.2 </tspan>
<tspan x="10" y="298">      │ └─┬ readable-stream@2.0.6 </tspan>
<tspan x="10" y="314">      │   ├── core-util-is@1.0.2 </tspan>
<tspan x="10" y="330">      │   ├── inherits@2.0.3 </tspan>
<tspan x="10" y="346">      │   ├── isarray@1.0.0 </tspan>
<tspan x="10" y="362">      │   ├── process-nextick-args@1.0.7 </tspan>
<tspan x="10" y="378">      │   ├── string_decoder@0.10.31 </tspan>
<tspan x="10" y="394">      │   └── util-deprecate@1.0.2 </tspan>
<tspan x="10" y="410">      ├── caseless@0.11.0 </tspan>
<tspan x="10" y="426">      ├─┬ combined-stream@1.0.5 </tspan>
<tspan x="10" y="442">      │ └── delayed-stream@1.0.0 </tspan>
<tspan x="10" y="458">      ├── extend@3.0.0 </tspan>
<tspan x="10" y="474">      ├── forever-agent@0.6.1 </tspan>
<tspan x="10" y="490">      ├─┬ form-data@1.0.1 </tspan>
<tspan x="10" y="506">      │ └─┬ async@2.3.0 </tspan>
<tspan x="10" y="522">      │   └── lodash@4.17.4 </tspan>
<tspan x="10" y="538">      ├─┬ har-validator@2.0.6 </tspan>
<tspan x="10" y="554">      │ ├─┬ chalk@1.1.3 </tspan>
<tspan x="10" y="570">      │ │ ├── ansi-styles@2.2.1 </tspan>
<tspan x="10" y="586">      │ │ ├── escape-string-regexp@1.0.5 </tspan>
<tspan x="10" y="602">      │ │ ├─┬ has-ansi@2.0.0 </tspan>
<tspan x="10" y="618">      │ │ │ └── ansi-regex@2.1.1 </tspan>
<tspan x="10" y="634">      │ │ ├── strip-ansi@3.0.1 </tspan>
<tspan x="10" y="650">      │ │ └── supports-color@2.0.0 </tspan>
<tspan x="10" y="666">      │ ├─┬ commander@2.9.0 </tspan>
<tspan x="10" y="682">      │ │ └── graceful-readlink@1.0.1 </tspan>
<tspan x="10" y="698">      │ ├─┬ is-my-json-valid@2.16.0 </tspan>
<tspan x="10" y="714">      │ │ ├── generate-function@2.0.0 </tspan>
<tspan x="10" y="730">      │ │ ├─┬ generate-object-property@1.2.0 </tspan>
<tspan x="10" y="746">      │ │ │ └── is-property@1.0.2 </tspan>
<tspan x="10" y="762">      │ │ ├── jsonpointer@4.0.1 </tspan>
<tspan x="10" y="778">      │ │ └── xtend@4.0.1 </tspan>
<tspan x="10" y="794">      │ └─┬ pinkie-promise@2.0.1 </tspan>
<tspan x="10" y="810">      │   └── pinkie@2.0.4 </tspan>
<tspan x="10" y="826">      ├─┬ hawk@3.1.3 </tspan>
<tspan x="10" y="842">      │ ├── boom@2.10.1 </tspan>
<tspan x="10" y="858">      │ ├── cryptiles@2.0.5 </tspan>
<tspan x="10" y="874">      │ ├── hoek@2.16.3 </tspan>
<tspan x="10" y="890">      │ └── sntp@1.0.9 </tspan>
<tspan x="10" y="906">      ├─┬ http-signature@1.1.1 </tspan>
<tspan x="10" y="922">      │ ├── assert-plus@0.2.0 </tspan>
<tspan x="10" y="938">      │ ├─┬ jsprim@1.4.0 </tspan>
<tspan x="10" y="954">      │ │ ├── assert-plus@1.0.0 </tspan>
<tspan x="10" y="970">      │ │ ├── extsprintf@1.0.2 </tspan>
<tspan x="10" y="986">      │ │ ├── json-schema@0.2.3 </tspan>
<tspan x="10" y="1002">      │ │ └── verror@1.3.6 </tspan>
<tspan x="10" y="1018">      │ └─┬ sshpk@1.13.0 </tspan>
<tspan x="10" y="1034">      │   ├── asn1@0.2.3 </tspan>
<tspan x="10" y="1050">      │   ├── assert-plus@1.0.0 </tspan>
<tspan x="10" y="1066">      │   ├── bcrypt-pbkdf@1.0.1 </tspan>
<tspan x="10" y="1082">      │   ├─┬ dashdash@1.14.1 </tspan>
<tspan x="10" y="1098">      │   │ └── assert-plus@1.0.0 </tspan>
<tspan x="10" y="1114">      │   ├── ecc-jsbn@0.1.1 </tspan>
<tspan x="10" y="1130">      │   ├─┬ getpass@0.1.6 </tspan>
<tspan x="10" y="1146">      │   │ └── assert-plus@1.0.0 </tspan>
<tspan x="10" y="1162">      │   ├── jodid25519@1.0.2 </tspan>
<tspan x="10" y="1178">      │   ├── jsbn@0.1.1 </tspan>
<tspan x="10" y="1194">      │   └── tweetnacl@0.14.5 </tspan>
<tspan x="10" y="1210">      ├── is-typedarray@1.0.0 </tspan>
<tspan x="10" y="1226">      ├── isstream@0.1.2 </tspan>
<tspan x="10" y="1242">      ├── json-stringify-safe@5.0.1 </tspan>
<tspan x="10" y="1258">      ├─┬ mime-types@2.1.15 </tspan>
<tspan x="10" y="1274">      │ └── mime-db@1.27.0 </tspan>
<tspan x="10" y="1290">      ├── node-uuid@1.4.8 </tspan>
<tspan x="10" y="1306">      ├── oauth-sign@0.8.2 </tspan>
<tspan x="10" y="1322">      ├── qs@6.2.3 </tspan>
<tspan x="10" y="1338">      ├── stringstream@0.0.5 </tspan>
<tspan x="10" y="1354">      ├─┬ tough-cookie@2.3.2 </tspan>
<tspan x="10" y="1370">      │ └── punycode@1.4.1 </tspan>
<tspan x="10" y="1386">      └── tunnel-agent@0.4.3</tspan>
</text>
</svg>
